<svg width="48" height="48" viewBox="0 0 48 48" fill="none" xmlns="http://www.w3.org/2000/svg">
<circle cx="24" cy="24" r="24" fill="#FAF6F3"/>
<path d="M37.5836 15.7598C36.6094 16.1915 35.5629 16.4832 34.4628 16.615C35.5979 15.9358 36.4472 14.8667 36.8521 13.6073C35.7856 14.2408 34.6183 14.6867 33.4011 14.9257C32.5825 14.0517 31.4983 13.4724 30.3168 13.2777C29.1353 13.0831 27.9225 13.2839 26.8669 13.8491C25.8112 14.4143 24.9717 15.3123 24.4786 16.4035C23.9856 17.4947 23.8666 18.7182 24.1401 19.884C21.9791 19.7755 19.865 19.2138 17.9351 18.2354C16.0052 17.257 14.3026 15.8837 12.9378 14.2047C12.4711 15.0097 12.2028 15.943 12.2028 16.937C12.2022 17.8318 12.4226 18.713 12.8443 19.5022C13.266 20.2914 13.876 20.9644 14.6201 21.4613C13.7571 21.4339 12.9131 21.2007 12.1584 20.7812V20.8512C12.1583 22.1062 12.5925 23.3226 13.3871 24.294C14.1818 25.2654 15.2881 25.9319 16.5183 26.1805C15.7177 26.3972 14.8783 26.4291 14.0636 26.2738C14.4107 27.3537 15.0868 28.298 15.9972 28.9746C16.9076 29.6511 18.0068 30.026 19.1409 30.0468C17.2157 31.5582 14.8381 32.3779 12.3906 32.3743C11.957 32.3745 11.5239 32.3491 11.0933 32.2985C13.5777 33.8959 16.4697 34.7436 19.4233 34.7403C29.4216 34.7403 34.8874 26.4593 34.8874 19.2773C34.8874 19.044 34.8816 18.8083 34.8711 18.575C35.9343 17.8061 36.852 16.854 37.5813 15.7633L37.5836 15.7598V15.7598Z" fill="#222222"/>
</svg>
