<svg width="48" height="48" viewBox="0 0 48 48" fill="none" xmlns="http://www.w3.org/2000/svg">
<circle cx="24" cy="24" r="24" fill="#FAF6F3"/>
<path d="M33.4444 13C34.1222 13 34.7722 13.2692 35.2515 13.7485C35.7308 14.2278 36 14.8778 36 15.5556V33.4444C36 34.1222 35.7308 34.7722 35.2515 35.2515C34.7722 35.7308 34.1222 36 33.4444 36H15.5556C14.8778 36 14.2278 35.7308 13.7485 35.2515C13.2692 34.7722 13 34.1222 13 33.4444V15.5556C13 14.8778 13.2692 14.2278 13.7485 13.7485C14.2278 13.2692 14.8778 13 15.5556 13H33.4444ZM32.8056 32.8056V26.0333C32.8056 24.9286 32.3667 23.869 31.5855 23.0878C30.8043 22.3066 29.7448 21.8678 28.64 21.8678C27.5539 21.8678 26.2889 22.5322 25.6756 23.5289V22.1106H22.1106V32.8056H25.6756V26.5061C25.6756 25.5222 26.4678 24.7172 27.4517 24.7172C27.9261 24.7172 28.3811 24.9057 28.7166 25.2412C29.0521 25.5767 29.2406 26.0317 29.2406 26.5061V32.8056H32.8056ZM17.9578 20.1044C18.5271 20.1044 19.0731 19.8783 19.4757 19.4757C19.8783 19.0731 20.1044 18.5271 20.1044 17.9578C20.1044 16.7694 19.1461 15.7983 17.9578 15.7983C17.3851 15.7983 16.8358 16.0258 16.4308 16.4308C16.0258 16.8358 15.7983 17.3851 15.7983 17.9578C15.7983 19.1461 16.7694 20.1044 17.9578 20.1044ZM19.7339 32.8056V22.1106H16.1944V32.8056H19.7339Z" fill="#222222"/>
</svg>
