<svg width="48" height="48" viewBox="0 0 48 48" fill="none" xmlns="http://www.w3.org/2000/svg">
<circle cx="24" cy="24" r="24" fill="#FAF6F3"/>
<path d="M24.5135 11.68C17.426 11.68 11.6802 17.4258 11.6802 24.5133C11.6802 31.6008 17.426 37.3467 24.5135 37.3467C31.601 37.3467 37.3468 31.6008 37.3468 24.5133C37.3468 17.4258 31.601 11.68 24.5135 11.68ZM22.1802 16.3467H32.0968L31.5021 16.8605C31.5021 16.8838 31.5135 16.9067 31.5135 16.93V20.0096C31.8635 20.2079 32.0968 20.5817 32.0968 21.0133V24.5133C32.0968 25.155 31.5718 25.68 30.9302 25.68C30.2885 25.68 29.7635 25.155 29.7635 24.5133V21.0133C29.7635 20.5817 29.9968 20.2079 30.3468 20.0096V17.846L28.2528 19.6427C28.4569 20.0511 28.5968 20.5468 28.5968 21.1535C28.5968 22.7401 27.7106 23.5274 26.8298 24.2274C26.5556 24.5074 26.2339 24.811 26.2339 25.2835C26.2339 25.7502 26.5554 26.0129 26.7887 26.1995L27.5407 26.8C28.4682 27.5933 29.3089 28.3228 29.3089 29.7987C29.3089 31.8112 27.3896 33.8467 23.7729 33.8467C20.7221 33.8467 19.2521 32.3708 19.2521 30.7842C19.2521 30.0142 19.6309 28.9231 20.8734 28.1706C22.1742 27.3597 23.9421 27.2492 24.8929 27.185C24.5954 26.8 24.2572 26.3975 24.2572 25.7267C24.2572 25.3709 24.3675 25.1552 24.4725 24.8927C24.2392 24.9161 24.0057 24.9394 23.7957 24.9394C21.5791 24.9394 20.3131 23.2592 20.3014 21.5967H16.3468L22.1802 16.3467ZM24.0874 18.2368C23.5449 18.2368 22.956 18.5114 22.6177 18.9489C22.2618 19.3922 22.1506 19.9693 22.1506 20.5234C22.1506 21.9584 22.9799 24.3379 24.7824 24.3379C25.3132 24.3379 25.8785 24.0816 26.2168 23.7375C26.6951 23.2416 26.742 22.5592 26.742 22.18C26.742 20.6342 25.8374 18.2368 24.0874 18.2368ZM25.1196 27.7855C24.933 27.7855 23.7959 27.8262 22.915 28.1295C22.4484 28.3045 21.1069 28.8128 21.1069 30.3353C21.1069 31.8578 22.5535 32.9489 24.8052 32.9489C26.8293 32.9489 27.8973 31.9568 27.8973 30.6326C27.8973 29.5418 27.209 28.9644 25.6107 27.8094C25.4415 27.7861 25.3355 27.7855 25.1196 27.7855Z" fill="#222222"/>
</svg>
