<svg width="48" height="48" viewBox="0 0 48 48" fill="none" xmlns="http://www.w3.org/2000/svg">
<circle cx="24" cy="24" r="24" fill="#FAF6F3"/>
<path d="M33.1875 14.375H14.8125C14.0005 14.3759 13.2221 14.6988 12.6479 15.2729C12.0738 15.8471 11.7509 16.6255 11.75 17.4375V30.5625C11.7509 31.3745 12.0738 32.1529 12.6479 32.7271C13.2221 33.3012 14.0005 33.6241 14.8125 33.625H33.1875C33.9995 33.6241 34.7779 33.3012 35.3521 32.7271C35.9262 32.1529 36.2491 31.3745 36.25 30.5625V17.4375C36.2491 16.6255 35.9262 15.8471 35.3521 15.2729C34.7779 14.6988 33.9995 14.3759 33.1875 14.375V14.375ZM32.412 19.4407L24.537 25.5657C24.3835 25.6851 24.1945 25.7499 24 25.7499C23.8055 25.7499 23.6165 25.6851 23.463 25.5657L15.588 19.4407C15.4954 19.3708 15.4177 19.2833 15.3593 19.1831C15.3009 19.0829 15.263 18.9722 15.2478 18.8572C15.2326 18.7423 15.2404 18.6255 15.2707 18.5136C15.3011 18.4017 15.3533 18.2969 15.4245 18.2054C15.4957 18.1138 15.5843 18.0374 15.6853 17.9804C15.7863 17.9234 15.8976 17.8871 16.0127 17.8735C16.1279 17.8599 16.2446 17.8693 16.356 17.9012C16.4675 17.9331 16.5715 17.9868 16.662 18.0593L24 23.7665L31.338 18.0593C31.5215 17.9207 31.7521 17.86 31.9801 17.8901C32.208 17.9203 32.4149 18.039 32.5561 18.2205C32.6972 18.402 32.7612 18.6318 32.7342 18.8601C32.7073 19.0885 32.5915 19.297 32.412 19.4407Z" fill="#222222"/>
</svg>
