<svg width="762" height="625" viewBox="0 0 762 625" fill="none" xmlns="http://www.w3.org/2000/svg">
<path d="M574.659 623.112C574.548 623.744 574.397 624.376 574.221 625H535.689C535.044 624.376 534.407 623.744 533.786 623.112C527.385 616.735 522.02 609.41 517.882 601.4C514.792 595.262 512.699 588.678 511.682 581.891C509.676 568.504 512 554.626 519.936 543.821C520.135 543.545 520.342 543.269 520.549 543C520.628 543.348 520.716 543.687 520.812 544.035C522.012 548.799 523.601 553.459 525.564 557.967C525.707 558.315 525.858 558.662 526.017 559.01C530.835 569.773 537.623 579.556 546.036 587.862C547.946 589.75 549.934 591.551 551.998 593.265C553.59 594.584 555.224 595.847 556.901 597.056C560.881 599.931 565.291 602.758 568.769 606.178C571.472 608.672 573.442 611.847 574.468 615.364C574.484 615.427 574.5 615.483 574.516 615.546C575.109 618.029 575.158 620.609 574.659 623.112V623.112Z" fill="#F0F0F0"/>
<path d="M560.98 623.097C560.964 623.734 560.934 624.371 560.888 625H559.997C560.05 624.363 560.089 623.726 560.104 623.097C560.148 621.918 560.107 620.736 559.981 619.563C559.559 615.758 558.03 612.064 554.788 609.979C553.841 609.383 552.83 608.902 551.777 608.546C549.695 607.813 547.475 607.431 545.355 606.898C544.84 606.771 544.333 606.627 543.842 606.476C541.09 605.68 538.538 604.276 536.36 602.36C533.732 599.881 531.529 596.958 529.846 593.715C528.724 591.67 527.702 589.56 526.78 587.403C526.658 587.124 526.535 586.846 526.427 586.567C520.807 572.897 518.821 557.917 520.674 543.183C520.704 542.896 520.743 542.617 520.781 542.331C520.858 541.758 521.711 541.989 521.626 542.57C521.588 542.848 521.549 543.119 521.519 543.398C520.767 549.379 520.656 555.429 521.188 561.436C521.219 561.746 521.25 562.049 521.273 562.343C522.091 570.662 524.141 578.799 527.349 586.471C527.387 586.559 527.418 586.639 527.464 586.726V586.742C528.224 588.525 529.046 590.277 529.93 591.996C531.537 595.29 533.634 598.302 536.144 600.92C538.268 603.014 540.832 604.57 543.634 605.465C543.911 605.553 544.195 605.64 544.479 605.72C544.702 605.791 544.932 605.855 545.163 605.911C547.322 606.468 549.557 606.858 551.693 607.567C552.662 607.878 553.603 608.277 554.504 608.761C555.976 609.594 557.261 610.742 558.274 612.128C559.287 613.514 560.005 615.106 560.381 616.801C560.867 618.86 561.068 620.98 560.98 623.097V623.097Z" fill="white"/>
<path d="M528.634 588.464C525.413 589.183 521.878 589.178 518.661 588.452C515.444 587.726 512.755 586.324 511.073 584.498C510.735 584.128 511.661 583.79 511.999 584.16C513.56 585.863 516.066 587.168 519.063 587.84C522.061 588.513 525.354 588.509 528.347 587.829C528.998 587.682 529.281 588.318 528.634 588.464V588.464Z" fill="white"/>
<path d="M543.076 605.365C547.002 600.413 547.675 594.755 544.959 589.519C544.69 589 546.045 588.776 546.314 589.294C549.123 594.746 548.403 600.633 544.298 605.781C543.907 606.271 542.686 605.853 543.076 605.365V605.365Z" fill="white"/>
<path d="M520.311 563.116C521.367 562.952 522.368 562.512 523.224 561.835C524.081 561.158 524.766 560.265 525.218 559.236C525.448 558.708 526.185 559.157 525.956 559.682C525.452 560.816 524.694 561.801 523.75 562.552C522.805 563.302 521.702 563.795 520.537 563.987C520.429 564.015 520.314 563.998 520.217 563.939C520.12 563.881 520.048 563.785 520.015 563.672C519.985 563.556 520 563.433 520.056 563.329C520.111 563.225 520.203 563.148 520.311 563.116L520.311 563.116Z" fill="white"/>
<path d="M589.991 623.126C590.007 623.541 589.999 623.949 589.984 624.357C589.976 624.569 589.968 624.788 589.953 625H555.088C554.942 624.373 554.803 623.753 554.665 623.126C553.617 618.4 552.864 613.612 552.41 608.79C552.379 608.468 552.348 608.155 552.326 607.825V607.817C551.919 603.054 551.893 598.265 552.249 593.497V593.489C552.456 590.886 552.787 588.298 553.249 585.71C554.455 579.057 556.681 572.64 559.843 566.692C559.859 566.668 559.866 566.645 559.882 566.621C566.192 554.795 576.133 545.149 588.606 541.282H588.614L588.622 541.275C588.937 541.188 589.253 541.094 589.568 541C589.43 541.322 589.291 541.659 589.161 541.988C589.153 541.996 589.145 541.996 589.153 542.004C587.288 546.483 585.785 551.11 584.659 555.838C584.567 556.206 584.474 556.567 584.398 556.936V556.944C581.798 568.363 581.302 580.175 582.935 591.78C583.274 594.132 583.698 596.469 584.205 598.791C584.69 601.026 585.267 603.237 585.921 605.425C587.237 609.809 588.868 614.397 589.607 618.922V618.93C589.841 620.316 589.97 621.719 589.991 623.126Z" fill="#F0F0F0"/>
<path d="M589.853 540.834C589.65 541.031 589.447 541.229 589.244 541.434C589.236 541.442 589.228 541.442 589.236 541.45C584.935 545.711 581.134 550.424 577.906 555.502C577.735 555.755 577.573 556.016 577.419 556.276C572.989 563.371 569.72 571.092 567.728 579.163C567.704 579.242 567.688 579.329 567.663 579.416C567.209 581.295 566.827 583.197 566.519 585.108C565.85 588.71 565.768 592.392 566.275 596.018C566.777 598.993 567.986 601.813 569.806 604.253C569.838 604.302 569.873 604.349 569.911 604.395C570.057 604.592 570.212 604.797 570.366 604.987C570.512 605.176 570.666 605.366 570.82 605.555C572.979 608.137 575.487 610.545 576.956 613.592C577.398 614.51 577.71 615.482 577.881 616.482C578.261 618.714 578.014 621.005 577.167 623.113C577.102 623.271 577.037 623.437 576.972 623.595C576.769 624.076 576.542 624.542 576.299 625H575.244C575.59 624.391 575.897 623.76 576.161 623.113C577.102 620.963 577.367 618.589 576.924 616.292C576.811 615.758 576.651 615.235 576.445 614.729C575.17 611.531 572.581 609.053 570.382 606.455C569.919 605.91 569.481 605.358 569.067 604.789C567.388 602.551 566.2 600.001 565.577 597.297C564.88 593.708 564.814 590.029 565.383 586.418C565.691 584.1 566.124 581.8 566.681 579.526C566.738 579.226 566.811 578.934 566.892 578.642C568.262 573.231 570.201 567.972 572.679 562.947C576.709 554.73 582.112 547.221 588.668 540.723L588.676 540.716C588.871 540.518 589.073 540.321 589.276 540.123C589.698 539.713 590.275 540.423 589.853 540.834Z" fill="white"/>
<path d="M566.462 579.978C564.072 579.116 562.019 577.277 560.669 574.789C559.319 572.302 558.761 569.327 559.094 566.398C559.163 565.805 559.945 565.904 559.875 566.498C559.561 569.225 560.081 571.995 561.342 574.309C562.603 576.622 564.522 578.326 566.751 579.113C567.236 579.285 566.944 580.149 566.462 579.978V579.978Z" fill="white"/>
<path d="M568.306 604.243C574.655 601.914 579.523 597.985 581.94 593.241C582.179 592.77 583.203 593.056 582.964 593.526C580.436 598.46 575.358 602.541 568.743 604.955C568.113 605.185 567.678 604.472 568.306 604.243V604.243Z" fill="white"/>
<path d="M577.635 557.017C578.666 557.323 579.822 557.486 580.997 557.49C582.173 557.495 583.332 557.341 584.371 557.043C584.903 556.889 585.272 557.355 584.743 557.508C583.593 557.834 582.312 558.003 581.013 558C579.714 557.997 578.436 557.821 577.291 557.488C577.179 557.462 577.089 557.413 577.04 557.352C576.991 557.291 576.987 557.222 577.028 557.16C577.075 557.097 577.164 557.048 577.278 557.021C577.392 556.994 577.52 556.993 577.635 557.017V557.017Z" fill="white"/>
<path d="M622.5 216C640.449 216 655 201.225 655 183C655 164.775 640.449 150 622.5 150C604.551 150 590 164.775 590 183C590 201.225 604.551 216 622.5 216Z" fill="#2F2E41"/>
<path d="M608.857 598L595 595.247L599.548 543L620 547.063L608.857 598Z" fill="#FFB6B6"/>
<path d="M608.733 591.192L595.243 587.581L593.086 587L591.29 595.531L583.212 598.894L573.338 603.001L573.322 603.009L569.581 604.566L569.369 604.659C569.244 604.713 569.126 604.768 569.008 604.83H569.001C568.922 604.868 568.844 604.915 568.765 604.953C568.149 605.307 567.607 605.773 567.166 606.325C566.59 607.055 566.212 607.917 566.067 608.831C565.922 609.745 566.014 610.68 566.336 611.549C566.657 612.418 567.197 613.191 567.905 613.797C568.613 614.403 569.465 614.82 570.381 615.011L572.828 615.515L576.357 616.243L577.283 616.429L588.718 618.785V618.792L594.381 619.955L600.294 612.361L600.129 621.133L608.882 622.938L609.18 623L609.188 622.938L613 592.339L608.733 591.192Z" fill="#2F2E41"/>
<path d="M674 586.016L662.9 593L632 551.307L648.381 541L674 586.016Z" fill="#FFB6B6"/>
<path d="M693 601.657L674.494 576L670.512 578.059L657.923 584.579L655.908 585.616L660.511 593.26L650.502 615.13C650.142 615.916 649.972 616.775 650.004 617.638C650.036 618.501 650.269 619.345 650.686 620.102C651.102 620.86 651.69 621.511 652.403 622.004C653.116 622.496 653.935 622.817 654.794 622.941C655.338 623.02 655.89 623.02 656.434 622.941C657.156 622.835 657.849 622.587 658.473 622.212L679.829 609.498L678.961 599.748L684.95 606.457L693 601.657Z" fill="#2F2E41"/>
<path d="M645.25 356L585.449 353.643L582 290H651L645.25 356Z" fill="#FFB8B8"/>
<path d="M684.124 399.389C683.103 398.421 682.296 397.229 681.762 395.898C681.228 394.568 680.978 393.131 681.031 391.688C681.084 390.245 681.439 388.833 682.069 387.549C682.699 386.265 683.591 385.142 684.68 384.259L674 351L690.823 355.659L698.386 386.528C699.681 388.544 700.225 390.988 699.915 393.397C699.606 395.806 698.464 398.012 696.706 399.597C694.948 401.183 692.696 402.037 690.377 401.999C688.058 401.96 685.833 401.032 684.124 399.389V399.389Z" fill="#FFB6B6"/>
<path d="M618.5 217C631.479 217 642 206.255 642 193C642 179.745 631.479 169 618.5 169C605.521 169 595 179.745 595 193C595 206.255 605.521 217 618.5 217Z" fill="#FFB8B8"/>
<path d="M643 177.366L618.79 159L598.966 163.383L591 190L602.859 189.425L606.172 179.69V189.264L611.645 188.999L614.82 173.501L616.805 190L636.259 189.5L643 177.366Z" fill="#2F2E41"/>
<path d="M584.239 339.341C584.239 339.341 563.927 374.595 583.537 428.084L637.704 566L663.599 550.715L637.203 491.339L658.674 418.661C663.618 402.19 665.142 384.885 663.153 367.805C661.606 355.025 655.454 349.062 647.552 337C621.167 353.993 585.379 347.249 584.239 339.341Z" fill="#2F2E41"/>
<path d="M609.499 481L591 565.065L617.761 570L633 499.332L609.499 481Z" fill="#2F2E41"/>
<path d="M635.671 222L605.495 222.402L595.673 234.864L579.862 238.59L575.753 262.321C573.698 274.184 575.88 281.698 581.915 292.118L582.638 312.616L581.84 314.067C581.445 314.784 581.329 315.622 581.514 316.419C581.699 317.216 582.172 317.917 582.842 318.388V318.388C582.277 319.813 582.211 321.387 582.655 322.854L583.045 324.141C583.045 324.141 584.169 333.126 647.885 323.676C649.237 323.476 650.486 322.841 651.444 321.868C652.402 320.895 653.017 319.636 653.194 318.283C653.887 317.587 654.343 316.691 654.499 315.722C654.655 314.753 654.502 313.759 654.063 312.881L653.933 312.622L654.588 311.852C655.316 310.995 655.736 309.919 655.783 308.796C655.829 307.673 655.498 306.566 654.843 305.653V305.653L664 240.191L645.084 234.304L635.671 222Z" fill="#E4E4E4"/>
<path d="M654.775 247.28L662.23 241C662.23 241 668.858 242.988 673.487 256.238C678.116 269.488 694 370 694 370L675.389 360.556L649 286.708L654.775 247.28Z" fill="#E4E4E4"/>
<path d="M486.744 353.893C488.209 354.104 489.703 354.002 491.121 353.594C492.54 353.186 493.85 352.483 494.957 351.532C496.064 350.582 496.942 349.409 497.53 348.095C498.118 346.781 498.4 345.358 498.358 343.927L532 331.584L516.839 321L487.217 334.344C484.736 334.572 482.427 335.672 480.729 337.437C479.031 339.201 478.061 341.506 478.003 343.916C477.945 346.325 478.802 348.672 480.413 350.511C482.025 352.35 484.277 353.553 486.744 353.893V353.893Z" fill="#FFB6B6"/>
<path d="M587 247.299L581.882 239.001C581.882 239.001 574.887 238.71 566.175 249.61C561.709 255.198 532.766 303.129 532.766 303.129L506 325.242L527.914 333L553.741 322.139L582.699 274.818L587 247.299Z" fill="#E4E4E4"/>
<path d="M698.568 186.667C691.689 179.027 687.342 169.577 682.846 160.391C678.349 151.205 673.446 141.923 665.786 135.033C658.126 128.143 647.088 124.011 637.137 126.97C627.187 129.929 620.014 141.551 624.234 150.863L624.585 152.357C648.432 153.322 671.363 166.874 683.359 187.089C689.02 196.63 692.521 207.675 700.528 215.438C704.761 219.542 710.027 222.475 715.792 223.941C721.556 225.406 727.613 225.35 733.349 223.78C739.084 222.21 744.293 219.18 748.447 215C752.601 210.819 755.552 205.636 757 199.976C737.275 207.945 712.681 202.344 698.568 186.667Z" fill="#2F2E41"/>
<path d="M762 623.996C762 624.261 761.903 624.515 761.73 624.703C761.557 624.891 761.322 624.997 761.077 625H486.927C486.681 625 486.446 624.895 486.272 624.707C486.098 624.52 486 624.265 486 624C486 623.735 486.098 623.48 486.272 623.293C486.446 623.105 486.681 623 486.927 623H761.077C761.321 623.002 761.555 623.108 761.727 623.294C761.9 623.48 761.998 623.732 762 623.996V623.996Z" fill="#3F3D56"/>
<path d="M483.302 527H21.6981C15.9454 526.993 10.4302 524.645 6.36244 520.471C2.29467 516.298 0.00652364 510.638 0 504.736V173.265C0.00652974 167.362 2.29468 161.703 6.36244 157.529C10.4302 153.355 15.9454 151.007 21.6981 151H483.302C488.194 150.984 492.947 152.672 496.783 155.788C500.62 158.904 503.312 163.263 504.42 168.153V168.153C504.809 169.827 505.004 171.543 505 173.265V504.736C504.993 510.638 502.705 516.298 498.638 520.472C494.57 524.645 489.055 526.993 483.302 527V527ZM21.6981 158.094C17.7784 158.099 14.0206 159.699 11.2489 162.543C8.4773 165.387 6.91827 169.243 6.91386 173.265V504.736C6.91827 508.758 8.47731 512.613 11.2489 515.457C14.0206 518.301 17.7784 519.901 21.6981 519.906H483.302C487.221 519.901 490.979 518.301 493.751 515.457C496.523 512.613 498.082 508.758 498.086 504.736V173.265C498.09 172.103 497.96 170.946 497.698 169.816L497.694 169.794C496.911 166.476 495.069 163.522 492.461 161.401C489.853 159.281 486.629 158.117 483.302 158.094L21.6981 158.094Z" fill="#E6E6E6"/>
<path d="M501.515 168.519C500.568 164.39 498.296 160.711 495.068 158.077C491.84 155.442 487.844 154.006 483.725 154H21.2746C16.4294 154.005 11.7841 155.99 8.35804 159.519C4.93196 163.048 3.00498 167.833 3 172.823V506.177C3.00499 511.167 4.93196 515.952 8.35804 519.481C11.7841 523.01 16.4294 524.995 21.2746 525H483.725C488.57 524.995 493.216 523.01 496.642 519.481C500.068 515.952 501.995 511.167 502 506.177V172.823C502.004 171.374 501.841 169.929 501.515 168.519V168.519Z" fill="#BBCAE3"/>
<path d="M197.52 181.012C192.073 178.13 185.522 176.905 179.822 179.188C174.337 181.384 170.328 186.548 168.033 192.195C165.739 197.842 164.935 204.007 164.153 210.087C163.842 212.509 163.823 215.565 165.897 216.695C166.654 217.013 167.484 217.084 168.28 216.899C169.076 216.715 169.8 216.282 170.356 215.659C171.444 214.394 172.325 212.95 172.966 211.386C176.227 205.039 181.049 199.715 186.935 195.96C192.821 192.205 199.559 190.156 206.455 190.024L212 192.617C207.521 188.284 202.966 183.894 197.52 181.012Z" fill="#FF6582"/>
<path d="M257.643 231.237C253.343 223.929 248.247 216.125 240.266 213.739C231.023 210.976 221.529 216.465 213.475 221.883C189.391 238.085 166.197 255.643 144 274.477L144.024 274.76C161.305 273.536 178.587 272.311 195.868 271.087C208.353 270.202 221.268 269.196 232.302 263.127C236.489 260.824 240.57 257.748 245.315 257.534C251.209 257.267 256.349 261.497 260.388 265.916C284.281 292.057 291.195 332.033 318 355C301.097 312.171 280.915 270.787 257.643 231.237V231.237Z" fill="white"/>
<path d="M89.7507 409.524C102.367 409.861 114.947 411.025 127.405 413.006C164.877 418.982 200.804 432.05 233.183 451.483C243.951 457.942 254.267 465.099 264.062 472.905C265.264 473.864 266.456 474.832 267.641 475.81C268.402 476.437 269.508 475.364 268.741 474.732C259.016 466.714 248.758 459.339 238.035 452.655C227.323 445.983 216.178 440.004 204.672 434.756C193.149 429.497 181.293 424.971 169.176 421.205C157.078 417.445 144.743 414.462 132.249 412.276C119.787 410.091 107.191 408.719 94.5437 408.167C92.9465 408.098 91.3488 408.042 89.7507 408C89.5492 408.007 89.3583 408.09 89.2183 408.232C89.0783 408.375 89 408.564 89 408.762C89 408.96 89.0783 409.15 89.2183 409.292C89.3583 409.434 89.5492 409.517 89.7507 409.524V409.524Z" fill="white"/>
<path d="M86.7434 358.573C109.215 360.168 131.694 361.79 154.076 364.413C176.515 366.873 198.766 370.851 220.682 376.322C240.058 381.192 258.919 387.975 276.994 396.573C293.923 404.64 309.852 414.713 324.449 426.581C338.861 438.292 351.453 452.141 361.799 467.662C363.089 469.624 364.338 471.612 365.546 473.628C366.064 474.489 367.402 473.701 366.882 472.835C357.119 456.763 344.971 442.316 330.868 430.004C316.656 417.614 301.012 407.025 284.28 398.47C266.847 389.551 248.585 382.411 229.762 377.155C207.943 371.138 185.722 366.735 163.275 363.981C140.664 361.03 117.926 359.242 95.1923 357.605C92.3761 357.403 89.5599 357.202 86.7435 357.002C85.75 356.932 85.7543 358.502 86.7435 358.573L86.7434 358.573Z" fill="white"/>
<path d="M84.7409 364.573C107.132 366.168 129.532 367.79 151.834 370.413C174.193 372.873 196.365 376.851 218.203 382.322C237.51 387.192 256.304 393.975 274.314 402.573C291.183 410.64 307.055 420.713 321.6 432.581C335.961 444.292 348.508 458.141 358.818 473.662C360.103 475.624 361.348 477.612 362.551 479.628C363.067 480.489 364.401 479.701 363.882 478.835C354.154 462.763 342.05 448.316 327.997 436.004C313.835 423.614 298.247 413.025 281.575 404.47C264.204 395.551 246.007 388.411 227.251 383.155C205.509 377.138 183.367 372.735 161 369.981C138.469 367.03 115.813 365.242 93.1596 363.605C90.3535 363.403 87.5473 363.202 84.7409 363.002C83.7509 362.932 83.7552 364.502 84.7409 364.573L84.7409 364.573Z" fill="white"/>
<path d="M406.73 454.723C404.086 451.281 401.46 447.824 398.853 444.35C377.611 416.034 357.646 386.762 338.957 356.534C326.263 336.004 314.198 315.08 302.763 293.761C297.318 283.626 292.023 273.412 286.878 263.118C282.885 255.136 278.981 247.106 275.166 239.029C274.075 236.722 273.015 234.404 271.961 232.081C269.475 226.619 267.036 221.13 264.417 215.741C261.433 209.6 257.8 203.161 252.32 199.035C249.826 197.08 246.843 195.898 243.721 195.625C239.26 195.328 235.143 197.227 231.274 199.3C202.934 214.656 176.482 233.456 152.484 255.3C128.449 277.056 106.965 301.636 88.4716 328.537C87.9058 329.369 86.5678 328.574 87.1389 327.736C89.3876 324.458 91.6809 321.216 94.0187 318.009C123.088 278.162 158.731 243.895 199.319 216.776C206.148 212.215 213.105 207.867 220.19 203.734C223.761 201.65 227.348 199.592 230.996 197.662C234.572 195.768 238.37 194.066 242.455 194.002C256.359 193.78 263.558 210.008 268.503 220.928C270.057 224.365 271.63 227.791 273.221 231.207C279.236 244.174 285.483 257.022 291.962 269.753C295.96 277.612 300.046 285.426 304.219 293.194C317.206 317.383 331.01 341.083 345.631 364.293C364.999 395.038 385.729 424.806 407.821 453.599C408.429 454.395 407.343 455.53 406.73 454.723Z" fill="white"/>
<path d="M326.957 325.454L348.14 317.685L358.657 313.828C362.055 312.456 365.521 311.259 369.041 310.242C372.118 309.36 375.386 309.402 378.439 310.362C381.163 311.372 383.656 312.922 385.77 314.918C387.93 316.913 389.939 319.065 391.782 321.357C394.072 324.116 396.328 326.905 398.595 329.684C407.947 341.153 417.239 352.673 426.47 364.242C435.7 375.811 444.869 387.429 453.976 399.096C463.105 410.792 472.171 422.537 481.175 434.331C482.278 435.775 483.38 437.221 484.481 438.667C485.089 439.466 486.461 438.678 485.844 437.868C476.774 425.956 467.641 414.092 458.444 402.278C449.225 390.435 439.942 378.642 430.596 366.9C421.249 355.157 411.84 343.466 402.367 331.826C400.007 328.926 397.644 326.029 395.276 323.135C393.279 320.694 391.304 318.227 389.113 315.955C385.092 311.785 380.068 308.1 374.055 308C370.532 308.124 367.062 308.889 363.812 310.258C360.271 311.543 356.738 312.851 353.201 314.148L331.87 321.972L326.537 323.928C325.59 324.275 325.999 325.805 326.956 325.454H326.957Z" fill="white"/>
<path d="M225 194.356L223.61 195.055C219.999 187.511 214.07 181.39 206.733 177.633C199.395 173.876 191.057 172.692 182.998 174.262C174.94 175.833 167.608 180.071 162.13 186.325C156.652 192.579 153.331 200.503 152.678 208.878C151.981 217.436 154.137 225.983 158.796 233.122L157.505 234C152.654 226.565 150.408 217.664 151.134 208.752C151.814 200.03 155.272 191.778 160.977 185.265C166.681 178.753 174.316 174.339 182.708 172.704C191.099 171.068 199.783 172.301 207.424 176.213C215.065 180.125 221.24 186.499 225 194.356L225 194.356Z" fill="#FF6582"/>
<path d="M123.51 237.331C118.056 234.794 111.985 233.673 105.921 234.082C99.8561 234.492 94.0161 236.417 89 239.661C107.905 242.74 126.604 246.86 145 252C137.361 247.774 131.385 241.152 123.51 237.331Z" fill="white"/>
<path d="M88.9514 240L88 242C88.3218 241.3 88.6563 240.644 89 240.023L88.9514 240Z" fill="white"/>
<path d="M386.138 325.246C384.099 322.7 381.895 320.034 378.847 319L376 319.115C397.669 358.404 426.934 392.735 462 420L386.138 325.246Z" fill="white"/>
<path d="M151.686 248.613C150.866 247.672 150.052 246.732 149.227 245.792C142.723 238.387 135.743 231.069 126.811 226.824C122.552 224.736 117.903 223.627 113.186 223.573C108.319 223.711 103.52 224.788 99.0393 226.749C96.9094 227.625 94.8264 228.619 92.775 229.677C90.431 230.892 88.1288 232.187 85.8372 233.492C81.5356 235.943 77.2898 238.5 73.0998 241.165C64.7629 246.469 56.687 252.177 48.8723 258.29C44.8213 261.46 40.8538 264.734 36.9699 268.112C33.3575 271.25 29.8182 274.472 26.3519 277.779C25.6107 278.483 24.5039 277.344 25.2452 276.64C26.1587 275.764 27.0827 274.893 28.0067 274.034C30.6169 271.605 33.2689 269.223 35.9626 266.887C40.8747 262.621 45.914 258.519 51.0805 254.582C59.1146 248.457 67.4252 242.747 76.0125 237.452C80.3037 234.809 84.6539 232.276 89.0632 229.855C90.3945 229.124 91.7414 228.409 93.1038 227.732C96.1953 226.127 99.4074 224.781 102.709 223.707C107.386 222.15 112.334 221.65 117.216 222.241C121.93 222.946 126.471 224.563 130.601 227.007C139.371 232.052 146.173 239.854 152.792 247.468C153.461 248.242 152.359 249.386 151.686 248.613Z" fill="white"/>
<path d="M57.3567 265H38V189H117V208.518H57.3567V265Z" fill="#2F2E41"/>
<path d="M466 265H447.412V208.577H387L387 189.078L466 189V265Z" fill="#2F2E41"/>
<path d="M468 487H387V467.225H447.266V410H468V487Z" fill="#2F2E41"/>
<path d="M117 487H38V410H56.7801V467.225H117V487Z" fill="#2F2E41"/>
</svg>
