<svg width="748" height="669" viewBox="0 0 748 669" fill="none" xmlns="http://www.w3.org/2000/svg">
<g clip-path="url(#clip0_2_2)">
<path d="M700.049 130.285C726.77 169.27 720.857 219.772 720.857 219.772C720.857 219.772 671.622 207.067 644.902 168.082C618.182 129.097 624.095 78.5945 624.095 78.5945C624.095 78.5945 673.329 91.2994 700.049 130.285Z" fill="#2F2E41"/>
<path d="M680.824 137.729C683.95 184.888 719.841 220.907 719.841 220.907C719.841 220.907 750.661 180.465 747.535 133.306C744.408 86.146 708.518 50.1271 708.518 50.1271C708.518 50.1271 677.697 90.5689 680.824 137.729Z" fill="#BBCAE3"/>
<path d="M374.046 0.982014L736.821 183.371C739.837 184.888 742.339 187.261 744.013 190.193C745.686 193.125 746.458 196.485 746.231 199.854L725.154 512.058C725.059 513.458 724.619 514.813 723.873 516.002C723.128 517.191 722.099 518.177 720.879 518.871C719.66 519.566 718.287 519.948 716.884 519.982C715.481 520.017 714.091 519.704 712.839 519.071L341.792 329.707L360.841 8.59276C360.93 7.08436 361.393 5.62181 362.187 4.33645C362.982 3.0511 364.083 1.9832 365.392 1.22866C366.701 0.474127 368.178 0.0565817 369.688 0.0135308C371.198 -0.0295202 372.696 0.30327 374.046 0.982014Z" fill="#D0CDE1"/>
<path d="M378.221 7.34409L732.085 185.254C735.027 186.733 737.468 189.047 739.101 191.907C740.733 194.767 741.486 198.045 741.264 201.331L720.705 505.867C720.613 507.233 720.184 508.554 719.456 509.714C718.729 510.874 717.725 511.835 716.536 512.513C715.346 513.19 714.007 513.563 712.639 513.597C711.27 513.631 709.914 513.325 708.692 512.707L346.759 327.995L365.34 14.7679C365.428 13.2966 365.879 11.8699 366.654 10.6161C367.429 9.36235 368.503 8.32069 369.78 7.58468C371.057 6.84868 372.497 6.44139 373.97 6.3994C375.444 6.3574 376.904 6.68202 378.221 7.34409Z" fill="#3F3D56"/>
<path d="M393.729 30.9746L714.496 192.244C717.164 193.585 719.376 195.683 720.856 198.276C722.336 200.868 723.018 203.84 722.817 206.818L704.181 482.871C704.097 484.109 703.708 485.307 703.049 486.358C702.389 487.409 701.48 488.281 700.401 488.895C699.323 489.509 698.109 489.847 696.869 489.878C695.628 489.908 694.399 489.631 693.292 489.072L365.21 321.635L382.053 37.7041C382.132 36.3703 382.541 35.0771 383.244 33.9406C383.946 32.8041 384.92 31.8599 386.078 31.1927C387.235 30.5255 388.54 30.1563 389.876 30.1183C391.212 30.0802 392.536 30.3745 393.729 30.9746Z" fill="white"/>
<path d="M62.7458 483.331L425.984 666.263C429.364 667.963 433.096 668.845 436.88 668.84C440.664 668.836 444.394 667.943 447.77 666.234L716.483 529.827C719.634 526.676 719.194 522.006 718.186 518.501C717.697 516.803 717.031 515.162 716.199 513.604L679.582 494.345L371.71 340.735L353.316 330.97C348.447 328.392 343.024 327.033 337.514 327.011C332.004 326.988 326.571 328.303 321.68 330.843L62.6322 465.405C60.984 466.257 59.6038 467.549 58.6441 469.137C57.6844 470.725 57.1827 472.548 57.1945 474.403C57.2062 476.258 57.731 478.074 58.7108 479.65C59.6905 481.226 61.087 482.5 62.7458 483.331Z" fill="#D0CDE1"/>
<path opacity="0.1" d="M62.7458 483.331L425.984 666.263C429.364 667.963 433.096 668.845 436.88 668.84C440.664 668.836 444.394 667.943 447.77 666.234L716.483 529.827C719.634 526.676 719.194 522.006 718.186 518.501L450.276 657.754C447.007 659.453 443.382 660.356 439.698 660.387C436.014 660.419 432.374 659.579 429.076 657.936L57.3241 472.729C56.9746 474.843 57.3126 477.015 58.2885 478.923C59.2644 480.831 60.8267 482.376 62.7458 483.331Z" fill="black"/>
<path opacity="0.1" d="M407.517 538.141L289.881 478.696C287.513 477.499 284.892 476.89 282.238 476.92C279.585 476.951 276.978 477.619 274.637 478.869L206.397 515.327C205.608 515.748 204.951 516.378 204.495 517.147C204.04 517.917 203.805 518.796 203.816 519.69C203.826 520.584 204.082 521.458 204.555 522.216C205.028 522.975 205.701 523.589 206.499 523.991L326.44 584.474C328.432 585.478 330.64 585.977 332.87 585.926C335.099 585.874 337.283 585.275 339.226 584.18L407.739 545.581C408.407 545.205 408.959 544.653 409.336 543.986C409.713 543.318 409.9 542.56 409.877 541.794C409.854 541.028 409.622 540.282 409.206 539.638C408.79 538.995 408.206 538.477 407.517 538.141Z" fill="black"/>
<path opacity="0.1" d="M684.565 528.199L557.979 595.448C556.523 596.222 554.902 596.635 553.252 596.651C551.603 596.668 549.974 596.288 548.502 595.544L190.842 414.674C189.834 414.164 188.988 413.384 188.398 412.42C187.809 411.457 187.499 410.349 187.504 409.22C187.509 408.09 187.828 406.985 188.426 406.026C189.024 405.068 189.876 404.295 190.888 403.795L314.503 342.612C316.366 341.689 318.418 341.213 320.497 341.221C322.575 341.228 324.624 341.719 326.48 342.654L684.51 523.046C684.985 523.285 685.385 523.651 685.666 524.102C685.948 524.554 686.1 525.074 686.105 525.606C686.111 526.138 685.971 526.661 685.699 527.118C685.427 527.576 685.035 527.95 684.565 528.199Z" fill="black"/>
<path d="M482.618 192.821L481.984 194.091L598.365 252.281L599 251.012L482.618 192.821Z" fill="#BBCAE3"/>
<path d="M482.608 209.887L481.962 211.149L598.375 270.698L599.021 269.435L482.608 209.887Z" fill="#BBCAE3"/>
<path d="M503.918 242.49L503.272 243.754L569.969 277.834L570.615 276.57L503.918 242.49Z" fill="#BBCAE3"/>
<path d="M139.527 313.547C139.527 313.547 111.146 301.18 97.8163 314.244C84.486 327.307 133.507 323.007 139.527 313.547Z" fill="#3F3D56"/>
<path d="M90.5214 254.898C100.059 238.783 118.928 238.032 118.928 238.032C118.928 238.032 137.315 235.68 149.11 260.224C160.103 283.101 175.276 305.189 151.552 310.544L147.267 297.207L144.613 311.537C141.235 311.78 137.847 311.838 134.463 311.711C109.056 310.89 84.8599 311.951 85.639 302.834C86.6747 290.714 81.3445 270.404 90.5214 254.898Z" fill="#2F2E41"/>
<path d="M77.1759 547.041C77.1759 547.041 89.2161 569.401 96.9562 569.401C104.696 569.401 103.836 584.021 102.116 587.461C100.396 590.901 96.0962 598.641 102.976 609.822C105.38 613.727 104.95 618.157 103.373 622.268C98.954 633.788 81.7657 630.298 82.314 617.972C82.3201 617.836 82.3274 617.699 82.336 617.562C83.196 603.802 76.3159 582.301 69.4358 577.141C62.5557 571.981 56.5356 558.221 56.5356 558.221L77.1759 547.041Z" fill="#FFB8B8"/>
<path d="M159.737 541.881C159.737 541.881 147.697 564.241 139.957 564.241C132.217 564.241 133.077 578.861 134.797 582.301C136.517 585.741 140.817 593.481 133.937 604.661C131.534 608.567 131.964 612.997 133.541 617.108C137.959 628.628 155.147 625.138 154.599 612.812C154.593 612.676 154.586 612.539 154.577 612.402C153.717 598.641 160.597 577.141 167.477 571.981C174.357 566.821 180.378 553.061 180.378 553.061L159.737 541.881Z" fill="#FFB8B8"/>
<path d="M150.277 431.799L155.437 442.979C155.437 442.979 231.118 467.919 224.238 497.16C217.358 526.4 183.818 571.981 178.658 570.261C173.497 568.541 145.977 563.381 145.117 548.761C144.257 534.14 164.897 508.34 164.897 508.34L136.517 482.54L95.2187 481.68L59.9757 508.34C59.9757 508.34 96.9562 541.02 80.616 553.921C64.2757 566.821 40.1953 575.421 36.7553 570.261C33.3152 565.101 -5.38539 488.56 0.634696 481.68C6.65479 474.799 67.7158 448.999 67.7158 448.999L84.056 425.779L147.697 422.339L150.277 431.799Z" fill="#2F2E41"/>
<path d="M134.797 289.896C134.797 289.896 130.497 318.277 139.097 321.717C147.697 325.157 121.897 339.777 121.897 339.777H107.276L97.8163 319.997C97.8163 319.997 106.416 304.517 101.256 289.896C96.0962 275.276 134.797 289.896 134.797 289.896Z" fill="#FFB8B8"/>
<path opacity="0.1" d="M134.797 289.896C134.797 289.896 130.497 318.277 139.097 321.717C147.697 325.157 121.897 339.777 121.897 339.777H107.276L97.8163 319.997C97.8163 319.997 106.416 304.517 101.256 289.896C96.0962 275.276 134.797 289.896 134.797 289.896Z" fill="black"/>
<path d="M140.817 313.977C140.817 313.977 131.357 324.297 129.637 326.017C127.917 327.737 120.177 337.197 103.836 323.437C87.4961 309.677 85.7761 326.017 85.7761 326.017V429.219C85.7761 429.219 99.5363 423.199 110.716 429.219C121.897 435.239 145.117 427.499 145.117 427.499L149.417 320.857L140.817 313.977Z" fill="#D0CDE1"/>
<path d="M134.5 313.977C134.5 313.977 142.537 310.537 149.417 313.977C156.297 317.417 180.378 334.617 178.657 342.357C176.937 350.097 154.577 404.278 170.057 430.079C185.538 455.879 188.118 462.759 188.118 462.759L150.277 442.979C150.277 442.979 121.037 424.919 123.617 413.738C126.197 402.558 134.5 313.977 134.5 313.977Z" fill="#3F3D56"/>
<path d="M100.386 313.977C100.386 313.977 82.336 315.697 81.476 317.417C80.6159 319.137 54.3855 326.447 56.1056 334.187C57.8256 341.927 81.476 411.158 71.1558 424.059C60.8356 436.959 43.6354 455.019 49.6555 456.739C55.6756 458.459 65.9957 454.159 76.3159 456.739C86.6361 459.319 110.716 437.819 108.136 414.598C105.556 391.378 108.116 319.997 100.386 313.977Z" fill="#3F3D56"/>
<path d="M143.397 478.239V486.84C143.397 486.84 147.697 506.62 133.937 505.76C120.177 504.9 128.777 481.68 128.777 481.68L129.637 473.939L143.397 478.239Z" fill="#FFB8B8"/>
<path d="M104.696 479.1C104.696 479.1 114.156 498.88 104.696 500.6C95.2362 502.32 88.3561 489.42 88.3561 485.98C88.3561 482.54 104.696 479.1 104.696 479.1Z" fill="#FFB8B8"/>
<path d="M92.2262 281.726C93.1761 281.726 93.9462 280.186 93.9462 278.286C93.9462 276.386 93.1761 274.846 92.2262 274.846C91.2762 274.846 90.5061 276.386 90.5061 278.286C90.5061 280.186 91.2762 281.726 92.2262 281.726Z" fill="#FFB8B8"/>
<path d="M142.967 281.726C143.917 281.726 144.687 280.186 144.687 278.286C144.687 276.386 143.917 274.846 142.967 274.846C142.017 274.846 141.247 276.386 141.247 278.286C141.247 280.186 142.017 281.726 142.967 281.726Z" fill="#FFB8B8"/>
<path d="M77.1759 325.157C77.1759 325.157 55.6756 325.157 56.5356 333.757C57.3956 342.357 85.7761 490.28 85.7761 490.28C85.7761 490.28 97.8163 479.099 108.136 481.68L77.1759 325.157Z" fill="#3F3D56"/>
<path d="M160.597 327.737C160.597 327.737 182.098 332.037 182.098 344.937C182.098 357.838 151.137 481.68 146.837 481.68C142.537 481.68 126.197 479.1 126.197 474.799C126.197 470.499 160.597 327.737 160.597 327.737Z" fill="#3F3D56"/>
<path opacity="0.2" d="M155.867 353.107L136.517 428.781C136.517 428.781 145.547 362.568 155.867 353.107Z" fill="black"/>
<path opacity="0.2" d="M80.6013 342.474L100.172 441.414C100.172 441.414 93.9169 348.182 80.6013 342.474Z" fill="black"/>
<path d="M117.597 303.657C131.371 303.657 142.537 292.491 142.537 278.716C142.537 264.942 131.371 253.776 117.597 253.776C103.822 253.776 92.6562 264.942 92.6562 278.716C92.6562 292.491 103.822 303.657 117.597 303.657Z" fill="#FFB8B8"/>
<path d="M94.738 253.344L113.38 243.58L139.123 247.574L144.449 271.098L131.191 270.589L127.487 261.946V270.446L121.369 270.211L117.818 256.451L115.599 271.098L93.85 270.655L94.738 253.344Z" fill="#2F2E41"/>
<path d="M374.28 108.551L364 133L450.768 178.545L480 93" fill="#F2F2F2"/>
<path d="M448.768 163.545L487.099 73.352L399 30L362 118L448.768 163.545Z" fill="#BBCAE3"/>
<path d="M396.918 64.4901L396.272 65.7542L462.969 99.8344L463.615 98.5703L396.918 64.4901Z" fill="white"/>
<path d="M391.918 76.4901L391.272 77.7542L457.969 111.834L458.615 110.57L391.918 76.4901Z" fill="white"/>
</g>
<defs>
<clipPath id="clip0_2_2">
<rect width="747.758" height="668.841" fill="white"/>
</clipPath>
</defs>
</svg>
