<svg width="801" height="632" viewBox="0 0 801 632" fill="none" xmlns="http://www.w3.org/2000/svg">
<g clip-path="url(#clip0_12_253)">
<path d="M666.398 494.853L629.65 460.547L612.225 444.475C610.582 442.96 609.322 441.078 608.548 438.982C607.774 436.886 607.507 434.637 607.77 432.419C608.033 430.2 608.818 428.075 610.061 426.219C611.303 424.362 612.968 422.826 614.919 421.738C616.642 420.776 618.547 420.185 620.512 420.004C622.477 419.823 624.459 420.055 626.329 420.686C628.199 421.317 629.916 422.332 631.37 423.666C632.823 425.001 633.982 426.625 634.77 428.434L640.502 441.585L676.097 478.507L666.398 494.853Z" fill="#FFB9B9"/>
<path d="M671.201 472.601L658.296 494.096L710.683 526.231C756.867 493.034 766.01 482.23 754.694 429.351L745.694 420.351L702.177 490.932L671.201 472.601Z" fill="#BBCAE3"/>
<path d="M595.124 412.84C594.607 412.33 593.93 412.013 593.208 411.942C592.485 411.87 591.76 412.049 591.153 412.449L566.893 428.25C566.495 428.509 566.16 428.854 565.912 429.26C565.664 429.666 565.51 430.122 565.461 430.596C565.412 431.069 565.469 431.547 565.629 431.995C565.789 432.443 566.046 432.849 566.383 433.185L628.077 494.612C628.377 494.91 628.733 495.146 629.125 495.306C629.517 495.465 629.937 495.545 630.36 495.541C630.783 495.537 631.201 495.449 631.59 495.282C631.978 495.115 632.33 494.872 632.624 494.568L652.842 473.642C653.426 473.035 653.747 472.221 653.735 471.379C653.723 470.536 653.378 469.732 652.777 469.142L595.124 412.84Z" fill="#3F3D56"/>
<path d="M571.673 429.94L574.183 428.339C573.919 428.81 573.822 429.357 573.908 429.891C573.994 430.424 574.258 430.913 574.657 431.277C575.056 431.641 575.567 431.86 576.106 431.896C576.645 431.933 577.181 431.786 577.626 431.48L593.872 420.311C594.242 420.057 594.532 419.705 594.711 419.294C594.89 418.884 594.95 418.431 594.884 417.988C594.818 417.545 594.629 417.129 594.338 416.789C594.048 416.448 593.667 416.195 593.24 416.06L594.534 415.236C594.701 415.129 594.901 415.082 595.099 415.105C595.297 415.127 595.481 415.216 595.621 415.358L650.274 469.067C650.356 469.15 650.42 469.248 650.463 469.356C650.506 469.463 650.527 469.579 650.525 469.695C650.523 469.811 650.498 469.925 650.451 470.031C650.404 470.137 650.337 470.233 650.252 470.312L630.403 489.653C630.239 489.808 630.02 489.893 629.794 489.89C629.568 489.887 629.352 489.796 629.192 489.636L571.526 431.29C571.434 431.198 571.363 431.087 571.32 430.964C571.276 430.841 571.261 430.71 571.275 430.58C571.289 430.45 571.332 430.326 571.401 430.215C571.47 430.104 571.563 430.01 571.673 429.94Z" fill="white"/>
<path d="M634.751 457.208L617.985 473.016L578.106 433.616L598.345 420.442L634.751 457.208Z" fill="#BBCAE3"/>
<path d="M579.656 443.339C579.765 443.231 579.826 443.083 579.826 442.929C579.826 442.775 579.765 442.628 579.656 442.519L576.169 439.032C576.058 438.926 575.911 438.867 575.758 438.867C575.606 438.867 575.459 438.926 575.348 439.032C575.239 439.14 575.179 439.288 575.179 439.442C575.179 439.596 575.239 439.743 575.348 439.852L578.836 443.339C578.946 443.445 579.093 443.504 579.246 443.504C579.399 443.504 579.546 443.445 579.656 443.339Z" fill="#E6E6E6"/>
<path d="M585.531 448.393L582.043 444.906C581.99 444.852 581.926 444.809 581.855 444.78C581.785 444.751 581.709 444.736 581.633 444.736C581.557 444.736 581.482 444.751 581.411 444.78C581.341 444.809 581.277 444.852 581.223 444.906C581.169 444.96 581.126 445.024 581.097 445.094C581.068 445.164 581.053 445.24 581.053 445.316C581.053 445.392 581.068 445.468 581.097 445.538C581.126 445.609 581.169 445.673 581.223 445.726L584.71 449.214C584.819 449.323 584.967 449.384 585.121 449.384C585.275 449.384 585.422 449.323 585.531 449.214C585.64 449.105 585.701 448.957 585.701 448.804C585.701 448.65 585.64 448.502 585.531 448.393Z" fill="#E6E6E6"/>
<path d="M634.364 474.693C636.527 474.693 638.281 472.94 638.281 470.777C638.281 468.614 636.527 466.86 634.364 466.86C632.201 466.86 630.448 468.614 630.448 470.777C630.448 472.94 632.201 474.693 634.364 474.693Z" fill="#BBCAE3"/>
<path d="M800.132 609.239H496.394V607.133H800.514L800.132 609.239Z" fill="#3F3D56"/>
<path d="M765.401 607.864V304.126H767.507V608.245L765.401 607.864Z" fill="#3F3D56"/>
<path d="M382.685 598.852L362.789 604.105C359.962 609.685 355.133 613.993 349.267 616.166C343.401 618.339 336.931 618.218 331.151 615.826L330.716 615.646C328.08 614.52 325.62 613.019 323.414 611.188C315.058 604.414 301.135 600.918 282.673 600.095C281.54 599.74 280.559 599.018 279.882 598.043C279.205 597.068 278.872 595.896 278.934 594.711C279 593.462 279.501 592.276 280.351 591.358C281.2 590.44 282.345 589.849 283.585 589.687L383.137 576.702L382.685 598.852Z" fill="#E6E6E6"/>
<path d="M640.799 616.481C588.748 608.134 541.329 594.622 501.571 572.572L378.165 602.858L378.617 575.798L475.078 541.964C491.351 536.257 508.646 534.046 525.832 535.479L640.799 556.812L640.799 616.481Z" fill="#2F2E41"/>
<path d="M442.357 627.341C441.965 626.032 442.006 624.632 442.475 623.35C442.944 622.067 443.815 620.97 444.958 620.223L491.626 595.688L502.927 566.305L522.365 578.51L516.94 600.208L518.223 609.187C518.625 612.003 518.418 614.873 517.614 617.602C516.811 620.331 515.431 622.855 513.567 625.004C511.703 627.153 509.399 628.877 506.811 630.058C504.223 631.239 501.412 631.851 498.567 631.851H448.419C447.058 631.851 445.733 631.412 444.641 630.599C443.549 629.787 442.748 628.644 442.357 627.341Z" fill="#E6E6E6"/>
<path d="M703.632 599.756C647.274 669.825 608.497 593.506 570.281 512.513L524.173 587.551L496.147 567.661L544.474 461.342C545.666 458.718 547.465 456.414 549.722 454.622C551.979 452.829 554.63 451.598 557.455 451.029C560.281 450.461 563.201 450.572 565.976 451.354C568.75 452.135 571.3 453.564 573.414 455.523L640.799 530.594L653.456 529.69L703.632 599.756Z" fill="#2F2E41"/>
<path d="M706.796 399.503C725.271 399.503 740.247 384.527 740.247 366.052C740.247 347.578 725.271 332.602 706.796 332.602C688.322 332.602 673.345 347.578 673.345 366.052C673.345 384.527 688.322 399.503 706.796 399.503Z" fill="#FFB9B9"/>
<path d="M749.288 425.721L712.221 433.858C708.662 418.594 703.511 403.746 696.851 389.558L731.206 376.901C735.428 393.788 741.492 410.159 749.288 425.721Z" fill="#FFB9B9"/>
<path d="M706.796 608.345L640.799 530.594L667.673 485.924C670.502 465.83 680.881 450.035 696.851 437.425L707.7 419.393L740.247 405.832C751.675 414.922 759.798 427.515 763.368 441.674C766.938 455.833 765.756 470.773 760.004 484.194L706.796 608.345Z" fill="#BBCAE3"/>
<path d="M649.84 522.457L610.06 491.719L591.215 477.337C589.439 475.981 588.009 474.225 587.043 472.21C586.078 470.196 585.603 467.981 585.658 465.747C585.714 463.514 586.298 461.326 587.362 459.361C588.427 457.397 589.941 455.713 591.782 454.448C593.409 453.33 595.251 452.564 597.19 452.201C599.13 451.838 601.124 451.885 603.045 452.339C604.965 452.793 606.769 453.644 608.341 454.838C609.913 456.031 611.217 457.54 612.171 459.268L619.101 471.829L657.976 505.28L649.84 522.457Z" fill="#FFB9B9"/>
<path d="M652.552 499.856L641.703 522.458L696.852 549.58C739.747 512.231 763.665 476.415 747.48 424.817L726.686 430.242L685.099 515.225L652.552 499.856Z" fill="#BBCAE3"/>
<path d="M750.223 327.501C757.578 327.501 763.541 321.538 763.541 314.183C763.541 306.827 757.578 300.864 750.223 300.864C742.867 300.864 736.904 306.827 736.904 314.183C736.904 321.538 742.867 327.501 750.223 327.501Z" fill="#2F2E41"/>
<path d="M736.499 310.922C736.718 307.543 738.217 304.374 740.69 302.061C743.163 299.749 746.425 298.466 749.811 298.474C749.536 298.439 749.264 298.397 748.983 298.379C745.458 298.152 741.988 299.335 739.335 301.667C736.682 303.999 735.065 307.29 734.838 310.815C734.611 314.34 735.794 317.811 738.127 320.463C740.459 323.116 743.749 324.734 747.274 324.961C747.555 324.979 747.831 324.971 748.108 324.972C744.749 324.547 741.678 322.856 739.521 320.246C737.364 317.636 736.284 314.301 736.499 310.922Z" fill="#2F2E41"/>
<path d="M736.424 316.609C724.546 306.756 690.477 319.279 688.279 325.904C672.217 328.093 660.055 337.464 660.055 354.127V354.127C669.605 358.039 680.466 357.557 692.206 354.127C710.921 369.379 712.204 388.552 700.823 410.574L714.825 410.854L732.182 385.487L733.012 411.218L765.109 410.574V373.7C765.213 361.439 762.391 349.331 756.878 338.38C751.876 328.662 744.114 322.988 736.424 316.609Z" fill="#2F2E41"/>
<path d="M706.535 381.758C710.053 381.758 712.904 377.766 712.904 372.842C712.904 367.917 710.053 363.925 706.535 363.925C703.018 363.925 700.166 367.917 700.166 372.842C700.166 377.766 703.018 381.758 706.535 381.758Z" fill="#FFB8B8"/>
<path d="M7 0C5.14412 0.00208302 3.36487 0.740248 2.05257 2.05255C0.740263 3.36485 0.00208302 5.14412 0 7V303C0.00218364 304.856 0.740408 306.635 2.0527 307.947C3.365 309.259 5.1442 309.997 7 310H441C442.856 309.997 444.635 309.259 445.947 307.947C447.259 306.635 447.998 304.856 448 303V7C447.998 5.14415 447.26 3.36493 445.947 2.05264C444.635 0.740357 442.856 0.0021649 441 0H7Z" fill="#E6E6E6"/>
<path d="M17 10C15.1441 10.0021 13.3649 10.7402 12.0526 12.0526C10.7403 13.3649 10.0021 15.1441 10 17V293C10.0021 294.855 10.7402 296.635 12.0526 297.947C13.3649 299.259 15.1441 299.997 17 300H431C432.856 299.997 434.635 299.259 435.947 297.947C437.26 296.635 437.998 294.855 438 293V17C437.998 15.1441 437.26 13.3649 435.947 12.0526C434.635 10.7404 432.856 10.0022 431 10H17Z" fill="white"/>
<path d="M97.6367 194.06H95.6367V200.06H97.6367V194.06Z" fill="#E6E6E6"/>
<path d="M97.6367 210.994H95.6367V221.929H97.6367V210.994Z" fill="#E6E6E6"/>
<path d="M97.6367 232.864H95.6367V238.864H97.6367V232.864Z" fill="#E6E6E6"/>
<path d="M292.637 110H290.637V116H292.637V110Z" fill="#E6E6E6"/>
<path d="M292.637 217.212H290.637V204.561H292.637V217.212ZM292.637 191.909H290.637V179.258H292.637V191.909ZM292.637 166.606H290.637V153.955H292.637V166.606ZM292.637 141.303H290.637V128.651H292.637V141.303Z" fill="#E6E6E6"/>
<path d="M292.637 229.864H290.637V235.864H292.637V229.864Z" fill="#E6E6E6"/>
<path d="M405.637 54H403.637V60H405.637V54Z" fill="#E6E6E6"/>
<path d="M405.637 218.54H403.637V207.215H405.637V218.54ZM405.637 195.891H403.637V184.567H405.637V195.891ZM405.637 173.243H403.637V161.919H405.637V173.243ZM405.637 150.594H403.637V139.27H405.637V150.594ZM405.637 127.945H403.637V116.621H405.637V127.945ZM405.637 105.297H403.637V93.9727H405.637V105.297ZM405.637 82.6484H403.637V71.3242H405.637V82.6484Z" fill="#E6E6E6"/>
<path d="M405.637 229.864H403.637V235.864H405.637V229.864Z" fill="#E6E6E6"/>
<path d="M62.9887 238.448C58.1757 224.025 67.2107 209.143 79.2872 201.518C94.656 191.815 114.173 194.703 130.341 200.718C162.172 212.561 190.688 240.247 227.048 233.72C234.265 232.519 241.093 229.62 246.969 225.263C253.065 220.48 257.708 214.094 260.377 206.82C266.151 191.777 264.774 175.365 265.672 159.602C266.503 144.997 269.406 128.39 281.404 118.609C294.549 107.894 313.178 109.973 328.989 108.936C344.202 108.005 358.913 103.142 371.685 94.823C384.41 86.5561 394.822 75.1853 401.938 61.7821C403.615 58.5608 405.085 55.2354 406.338 51.8264C407.008 50.0129 404.11 49.2304 403.445 51.0289C392.83 79.757 365.371 101.676 334.92 105.398C318.859 107.361 301.474 104.64 286.445 111.899C272.293 118.733 266.013 133.543 263.806 148.313C261.437 164.175 263.406 180.395 260.271 196.166C258.708 204.029 255.805 211.764 250.487 217.882C245.433 223.531 238.854 227.599 231.542 229.596C195.882 239.904 165.429 211.714 134.606 199.176C118.565 192.651 99.3649 188.797 82.9122 196.167C70.0978 201.908 59.2062 214.789 58.6435 229.225C58.5198 232.626 59.0119 236.02 60.0959 239.245C60.704 241.068 63.6023 240.287 62.9887 238.448H62.9887Z" fill="#BBCAE3"/>
<path d="M423 239.864H41V51.1362H43V237.864H423V239.864Z" fill="#3F3D56"/>
</g>
<defs>
<clipPath id="clip0_12_253">
<rect width="800.514" height="631.851" fill="white"/>
</clipPath>
</defs>
</svg>
